<?xml version="1.0" encoding="UTF-8" standalone="no"?>
<svg
   xmlns:dc="http://purl.org/dc/elements/1.1/"
   xmlns:cc="http://creativecommons.org/ns#"
   xmlns:rdf="http://www.w3.org/1999/02/22-rdf-syntax-ns#"
   xmlns:svg="http://www.w3.org/2000/svg"
   xmlns="http://www.w3.org/2000/svg"
   xmlns:sodipodi="http://sodipodi.sourceforge.net/DTD/sodipodi-0.dtd"
   xmlns:inkscape="http://www.inkscape.org/namespaces/inkscape"
   version="1.1"
   width="76"
   height="76"
   viewBox="0 0 76.00 76.00"
   enable-background="new 0 0 76.00 76.00"
   xml:space="preserve"
   id="svg2"
   inkscape:version="0.48.4 r9939"
   sodipodi:docname="appbar.delete.svg"><metadata
   id="metadata10"><rdf:RDF><cc:Work
       rdf:about=""><dc:format>image/svg+xml</dc:format><dc:type
         rdf:resource="http://purl.org/dc/dcmitype/StillImage" /></cc:Work></rdf:RDF></metadata><defs
   id="defs8" /><sodipodi:namedview
   pagecolor="#ffffff"
   bordercolor="#666666"
   borderopacity="1"
   objecttolerance="10"
   gridtolerance="10"
   guidetolerance="10"
   inkscape:pageopacity="0"
   inkscape:pageshadow="2"
   inkscape:window-width="1920"
   inkscape:window-height="1017"
   id="namedview6"
   showgrid="false"
   inkscape:zoom="3.1052632"
   inkscape:cx="38"
   inkscape:cy="38"
   inkscape:window-x="-8"
   inkscape:window-y="-8"
   inkscape:window-maximized="1"
   inkscape:current-layer="svg2" />
	<path
   d="m 12.773978,9.0437493 52.813698,0 c 1.822901,0 2.475427,7.4269067 2.475427,7.4269067 l -57.764761,0 c 0,0 0.652734,-7.4269067 2.475636,-7.4269067 z m 21.455577,-8.25204929 9.902543,0 c 0.911451,0 3.300778,2.38932709 3.300778,3.30077799 0,0.9114508 -2.389327,3.3009864 -3.300778,3.3009864 l -9.902543,0 c -0.91145,0 -3.300986,-2.3895356 -3.300986,-3.3009864 0,-0.9114509 2.389536,-3.30077799 3.300986,-3.30077799 z M 17.725249,18.946292 l 42.910947,0 c 1.82311,0 3.300986,1.477876 3.300986,3.300986 L 60.636196,71.75999 c 0,1.822902 -1.477668,3.300778 -3.300778,3.300778 l -36.309183,0 c -1.82311,0 -3.300986,-1.477876 -3.300986,-3.300778 L 14.424471,22.247278 c 0,-1.82311 1.477876,-3.300986 3.300778,-3.300986 z m 4.951271,6.601764 0.825351,42.910947 5.776413,0 -0.825142,-42.910947 -5.776622,0 z m 13.203529,0 0,42.910947 6.601556,0 0,-42.910947 -6.601556,0 z m 14.028462,0 -0.825142,42.910947 5.776413,0 0.825351,-42.910947 -5.776622,0 z"
   id="path4"
   inkscape:connector-curvature="0"
   style="fill:#000000;fill-opacity:1;stroke-width:0.2;stroke-linejoin:round" />
</svg>