<?xml version="1.0" encoding="UTF-8" standalone="no"?>
<svg
   xmlns:dc="http://purl.org/dc/elements/1.1/"
   xmlns:cc="http://creativecommons.org/ns#"
   xmlns:rdf="http://www.w3.org/1999/02/22-rdf-syntax-ns#"
   xmlns:svg="http://www.w3.org/2000/svg"
   xmlns="http://www.w3.org/2000/svg"
   xmlns:sodipodi="http://sodipodi.sourceforge.net/DTD/sodipodi-0.dtd"
   xmlns:inkscape="http://www.inkscape.org/namespaces/inkscape"
   version="1.1"
   width="76"
   height="76"
   viewBox="0 0 76.00 76.00"
   enable-background="new 0 0 76.00 76.00"
   xml:space="preserve"
   id="svg2"
   inkscape:version="0.48.4 r9939"
   sodipodi:docname="cache.clear.svg"><metadata
   id="metadata10"><rdf:RDF><cc:Work
       rdf:about=""><dc:format>image/svg+xml</dc:format><dc:type
         rdf:resource="http://purl.org/dc/dcmitype/StillImage" /></cc:Work></rdf:RDF></metadata><defs
   id="defs8" /><sodipodi:namedview
   pagecolor="#ffffff"
   bordercolor="#666666"
   borderopacity="1"
   objecttolerance="10"
   gridtolerance="10"
   guidetolerance="10"
   inkscape:pageopacity="0"
   inkscape:pageshadow="2"
   inkscape:window-width="1920"
   inkscape:window-height="1017"
   id="namedview6"
   showgrid="false"
   inkscape:zoom="3.1052632"
   inkscape:cx="38"
   inkscape:cy="38"
   inkscape:window-x="-8"
   inkscape:window-y="-8"
   inkscape:window-maximized="1"
   inkscape:current-layer="svg2" />
	<path
   d="m 75.178228,54.212409 0,20.821489 -74.36262299,0 0,-20.821489 18.59812399,0 c 4.002997,2.559829 8.979317,4.75464 14.547408,6.246653 6.957153,1.864172 15.150261,2.315983 20.630243,1.554384 l 0,-7.801037 20.586848,0 z m -4.461762,4.461761 -5.205513,0 0,8.923522 5.205326,0 1.87e-4,-8.923522 z M 51.056538,58.656699 C 46.199324,59.331881 40.255319,58.187603 34.088695,56.535343 23.709793,53.754209 15.650256,48.217869 13.057363,42.712337 l 12.725694,-12.725694 25.273481,9.47772 0,19.192336 z M 38.934075,20.876384 c 0.647377,0 1.283484,0.04171 1.905312,0.12192 L 51.547801,-0.01799961 57.308451,2.9171819 46.925417,23.295125 c 3.007884,2.07176 4.93931,5.286295 4.93931,8.895718 0,1.550062 -0.356189,3.027234 -1.000937,4.372525 L 27.896335,27.647553 c 1.999808,-3.986654 5.743178,-6.771169 11.03774,-6.771169 z"
   id="path4"
   inkscape:connector-curvature="0"
   style="fill:#000000;fill-opacity:1;stroke-width:0.2;stroke-linejoin:round" />
</svg>