<?xml version="1.0" encoding="UTF-8" standalone="no"?>
<svg
   xmlns:dc="http://purl.org/dc/elements/1.1/"
   xmlns:cc="http://creativecommons.org/ns#"
   xmlns:rdf="http://www.w3.org/1999/02/22-rdf-syntax-ns#"
   xmlns:svg="http://www.w3.org/2000/svg"
   xmlns="http://www.w3.org/2000/svg"
   xmlns:sodipodi="http://sodipodi.sourceforge.net/DTD/sodipodi-0.dtd"
   xmlns:inkscape="http://www.inkscape.org/namespaces/inkscape"
   version="1.1"
   width="76"
   height="76"
   viewBox="0 0 76.00 76.00"
   enable-background="new 0 0 76.00 76.00"
   xml:space="preserve"
   id="svg2"
   inkscape:version="0.48.4 r9939"
   sodipodi:docname="cloud.upload.svg"><metadata
   id="metadata10"><rdf:RDF><cc:Work
       rdf:about=""><dc:format>image/svg+xml</dc:format><dc:type
         rdf:resource="http://purl.org/dc/dcmitype/StillImage" /></cc:Work></rdf:RDF></metadata><defs
   id="defs8" /><sodipodi:namedview
   pagecolor="#ffffff"
   bordercolor="#666666"
   borderopacity="1"
   objecttolerance="10"
   gridtolerance="10"
   guidetolerance="10"
   inkscape:pageopacity="0"
   inkscape:pageshadow="2"
   inkscape:window-width="1920"
   inkscape:window-height="1017"
   id="namedview6"
   showgrid="false"
   inkscape:zoom="3.1052632"
   inkscape:cx="38"
   inkscape:cy="38"
   inkscape:window-x="1912"
   inkscape:window-y="-8"
   inkscape:window-maximized="1"
   inkscape:current-layer="svg2" />
	<path
   d="M 60.300781,28.016951 C 68.971076,28.016951 76,35.045676 76,43.715971 76,52.386464 68.869941,59.249803 60.135395,59.250002 l -15.864209,0 0,-11.898305 7.932204,0 -11.898305,-11.898305 -11.898305,11.898305 7.932203,0 0,11.898305 -27.7627118,1.98e-4 c -4.3351475,-1.98e-4 -7.9322034,-3.349373 -7.9322034,-7.68452 0,-3.843946 2.7625881,-7.042409 6.4106085,-7.718034 L 6.9237949,42.14599 c 0,-5.900766 4.6512461,-10.715812 10.4875631,-10.97817 2.583122,-7.322812 9.564056,-12.570559 17.770911,-12.570559 7.791606,0 14.478651,4.73037 17.345746,11.475717 2.291614,-1.308417 4.944936,-2.056027 7.772766,-2.056027 z"
   id="path4"
   inkscape:connector-curvature="0"
   style="fill:#000000;fill-opacity:1;stroke-width:0.2;stroke-linejoin:round" />
</svg>