<?xml version="1.0" encoding="UTF-8" standalone="no"?>
<svg
   xmlns:dc="http://purl.org/dc/elements/1.1/"
   xmlns:cc="http://creativecommons.org/ns#"
   xmlns:rdf="http://www.w3.org/1999/02/22-rdf-syntax-ns#"
   xmlns:svg="http://www.w3.org/2000/svg"
   xmlns="http://www.w3.org/2000/svg"
   xmlns:sodipodi="http://sodipodi.sourceforge.net/DTD/sodipodi-0.dtd"
   xmlns:inkscape="http://www.inkscape.org/namespaces/inkscape"
   version="1.1"
   width="76"
   height="76"
   viewBox="0 0 76.00 76.00"
   enable-background="new 0 0 76.00 76.00"
   xml:space="preserve"
   id="svg2"
   inkscape:version="0.48.4 r9939"
   sodipodi:docname="gallery.svg"><metadata
   id="metadata10"><rdf:RDF><cc:Work
       rdf:about=""><dc:format>image/svg+xml</dc:format><dc:type
         rdf:resource="http://purl.org/dc/dcmitype/StillImage" /></cc:Work></rdf:RDF></metadata><defs
   id="defs8" /><sodipodi:namedview
   pagecolor="#ffffff"
   bordercolor="#666666"
   borderopacity="1"
   objecttolerance="10"
   gridtolerance="10"
   guidetolerance="10"
   inkscape:pageopacity="0"
   inkscape:pageshadow="2"
   inkscape:window-width="1920"
   inkscape:window-height="1017"
   id="namedview6"
   showgrid="false"
   inkscape:zoom="0.3881579"
   inkscape:cx="-628.21994"
   inkscape:cy="-358.22838"
   inkscape:window-x="-8"
   inkscape:window-y="-8"
   inkscape:window-maximized="1"
   inkscape:current-layer="svg2" />
	<path
   d="m 8.9137134,4.5377504 55.4206466,0 0,5.1956856 12.123267,0 0,51.956856 -12.123267,0 0,8.659477 -55.4206466,0 0,-5.195686 -8.65947611,0 0,-51.956856 8.65947611,0 z m 5.1956856,5.1956856 0,45.029275 45.029276,0 0,-45.029275 z m -8.6594761,8.659477 0,31.174113 3.4637905,0 0,-31.174113 z m 58.8844371,27.710323 6.927581,0 0,-31.174115 -6.927581,0 z"
   id="path4"
   inkscape:connector-curvature="0"
   style="fill:#000000;fill-opacity:1;stroke-width:0.2;stroke-linejoin:round"
   sodipodi:nodetypes="cccccccccccccccccccccccccccc" />
<path
   style="fill:#000000;fill-opacity:1;stroke-width:0.2;stroke-linejoin:round"
   inkscape:connector-curvature="0"
   d="m 36.547833,11.023378 c 11.613491,0 21.028138,9.414647 21.028138,21.028138 0,11.613491 -9.414647,21.028138 -21.028138,21.028138 -11.613491,0 -21.028138,-9.414647 -21.028138,-21.028138 0,-11.613491 9.414647,-21.028138 21.028138,-21.028138 z m -17.96243,19.526162 5.976504,0 c 0.100271,-2.486092 0.447472,-4.852845 0.999009,-7.025696 -1.395539,-0.489591 -2.683313,-1.069588 -3.838468,-1.725854 -1.749095,2.524226 -2.870194,5.516795 -3.137045,8.75155 z m 10.42466,-14.874998 c -2.046399,0.943419 -3.885804,2.259082 -5.431418,3.860286 0.860793,0.445859 1.81275,0.847417 2.840787,1.197274 0.70275,-1.921748 1.579195,-3.630147 2.590631,-5.05756 z m 6.035794,14.874998 0,-5.287225 c -2.343512,-0.09448 -4.58087,-0.408483 -6.649752,-0.906043 -0.450412,1.904957 -0.738703,3.993095 -0.829487,6.193268 l 7.479239,0 z m 0,-16.272909 c -2.385157,0.80027 -4.45252,3.474286 -5.810967,7.239234 1.800796,0.400135 3.756979,0.657026 5.810967,0.741739 l 0,-7.980973 z M 54.510168,30.54954 c -0.266851,-3.234755 -1.387855,-6.227229 -3.136951,-8.75155 -1.155154,0.656266 -2.443023,1.236357 -3.838467,1.725949 0.551442,2.172756 0.898643,4.539509 0.998914,7.025601 l 5.976504,0 z M 44.085603,15.674542 c 1.011341,1.427413 1.887786,3.135907 2.590536,5.05756 1.028132,-0.349857 1.979994,-0.751415 2.840881,-1.197274 -1.545613,-1.601204 -3.385019,-2.916867 -5.431417,-3.860286 z m -6.035794,14.874998 7.479144,0 c -0.09069,-2.200173 -0.379075,-4.288311 -0.829393,-6.193268 -2.068881,0.49756 -4.306335,0.811559 -6.649751,0.906043 l 0,5.287225 z m 0,-16.272909 0,7.980973 c 2.053892,-0.08471 4.01017,-0.341604 5.810872,-0.741739 -1.358352,-3.764948 -3.425811,-6.438869 -5.810872,-7.239234 z m 16.460359,19.276956 -5.976504,0 c -0.100271,2.485996 -0.447472,4.852749 -0.998914,7.025601 1.395444,0.489591 2.683313,1.069587 3.838467,1.725854 1.749096,-2.524227 2.8701,-5.516795 3.136951,-8.751455 z M 44.085603,48.428585 c 2.046398,-0.943514 3.885804,-2.259178 5.431417,-3.860381 -0.860792,-0.445859 -1.812749,-0.847417 -2.840881,-1.197274 -0.70275,1.921747 -1.579195,3.630241 -2.590536,5.057655 z m -6.035794,-14.874998 0,5.28713 c 2.343416,0.09448 4.58087,0.408483 6.649751,0.906042 0.450318,-1.904956 0.738703,-3.993 0.829488,-6.193172 l -7.479239,0 z m 0,16.272813 c 2.385061,-0.800269 4.45252,-3.474191 5.810967,-7.239234 -1.800797,-0.400134 -3.757075,-0.657025 -5.810967,-0.741738 l 0,7.980972 z M 18.585403,33.553587 c 0.266851,3.23466 1.38795,6.227228 3.137045,8.751455 1.155155,-0.656267 2.442929,-1.236263 3.838468,-1.725854 -0.551537,-2.172852 -0.898738,-4.539605 -0.999009,-7.025601 l -5.976504,0 z m 10.42466,14.874998 c -1.011341,-1.427414 -1.887787,-3.135908 -2.590631,-5.057655 -1.028037,0.349857 -1.979994,0.751415 -2.840787,1.197369 1.545614,1.601108 3.385019,2.916867 5.431418,3.860286 z m 6.035794,-14.874998 -7.479239,0 c 0.09078,2.200172 0.379075,4.28831 0.829487,6.193172 2.068882,-0.497559 4.30624,-0.811558 6.649752,-0.906042 l 0,-5.28713 z m 0,16.272813 0,-7.980972 c -2.053988,0.08471 -4.010266,0.341604 -5.810967,0.741738 1.358447,3.765043 3.42581,6.438965 5.810967,7.239234 z"
   id="path4-7" /></svg>