<?xml version="1.0" encoding="UTF-8" standalone="no"?>
<svg
   xmlns:dc="http://purl.org/dc/elements/1.1/"
   xmlns:cc="http://creativecommons.org/ns#"
   xmlns:rdf="http://www.w3.org/1999/02/22-rdf-syntax-ns#"
   xmlns:svg="http://www.w3.org/2000/svg"
   xmlns="http://www.w3.org/2000/svg"
   xmlns:sodipodi="http://sodipodi.sourceforge.net/DTD/sodipodi-0.dtd"
   xmlns:inkscape="http://www.inkscape.org/namespaces/inkscape"
   version="1.1"
   width="76"
   height="76"
   viewBox="0 0 76.00 76.00"
   enable-background="new 0 0 76.00 76.00"
   xml:space="preserve"
   id="svg2"
   inkscape:version="0.48.4 r9939"
   sodipodi:docname="appbar.image.gallery.svg"><metadata
   id="metadata10"><rdf:RDF><cc:Work
       rdf:about=""><dc:format>image/svg+xml</dc:format><dc:type
         rdf:resource="http://purl.org/dc/dcmitype/StillImage" /></cc:Work></rdf:RDF></metadata><defs
   id="defs8" /><sodipodi:namedview
   pagecolor="#ffffff"
   bordercolor="#666666"
   borderopacity="1"
   objecttolerance="10"
   gridtolerance="10"
   guidetolerance="10"
   inkscape:pageopacity="0"
   inkscape:pageshadow="2"
   inkscape:window-width="1920"
   inkscape:window-height="1017"
   id="namedview6"
   showgrid="false"
   inkscape:zoom="0.54893816"
   inkscape:cx="1115.9349"
   inkscape:cy="-134.18422"
   inkscape:window-x="1912"
   inkscape:window-y="-8"
   inkscape:window-maximized="1"
   inkscape:current-layer="svg2" />
	<path
   d="m 8.9137134,4.5377504 55.4206466,0 0,5.1956856 12.123267,0 0,51.956856 -12.123267,0 0,8.659477 -55.4206466,0 0,-5.195686 -8.65947611,0 0,-51.956856 8.65947611,0 z m 5.1956856,5.1956856 0,45.029275 45.029276,0 0,-45.029275 z m -8.6594761,8.659477 0,31.174113 3.4637905,0 0,-31.174113 z m 58.8844371,27.710323 6.927581,0 0,-31.174115 -6.927581,0 z"
   id="path4"
   inkscape:connector-curvature="0"
   style="fill:#000000;fill-opacity:1;stroke-width:0.2;stroke-linejoin:round"
   sodipodi:nodetypes="cccccccccccccccccccccccccccc" />
<path
   style="fill:#000000;fill-opacity:1;stroke-width:0.2;stroke-linejoin:round"
   inkscape:connector-curvature="0"
   d="m 36.547833,9.998672 c 12.2423,0 22.1667,9.9244 22.1667,22.1667 0,12.2423 -9.9244,22.1667 -22.1667,22.1667 -12.2423,0 -22.1667,-9.9244 -22.1667,-22.1667 0,-12.2423 9.9244,-22.1667 22.1667,-22.1667 z m -18.935,20.5834 6.3001,0 c 0.1057,-2.6207 0.4717,-5.1156 1.0531,-7.4061 -1.4711,-0.5161 -2.8286,-1.1275 -4.0463,-1.8193 -1.8438,2.6609 -3.0256,5.8155 -3.3069,9.2254 z m 10.9891,-15.6804 c -2.1572,0.9945 -4.0962,2.3814 -5.7255,4.0693 0.9074,0.47 1.9109,0.8933 2.9946,1.2621 0.7408,-2.0258 1.6647,-3.8267 2.7309,-5.3314 z m 6.3626,15.6804 0,-5.5735 c -2.4704,-0.0996 -4.8289,-0.4306 -7.0098,-0.9551 -0.4748,2.0081 -0.7787,4.2093 -0.8744,6.5286 l 7.8842,0 z m 0,-17.154 c -2.5143,0.8436 -4.6936,3.6624 -6.1256,7.6312 1.8983,0.4218 3.9604,0.6926 6.1256,0.7819 l 0,-8.4131 z m 20.5182,17.154 c -0.2813,-3.4099 -1.463,-6.5644 -3.3068,-9.2254 -1.2177,0.6918 -2.5753,1.3033 -4.0463,1.8194 0.5813,2.2904 0.9473,4.7853 1.053,7.406 l 6.3001,0 z m -10.989,-15.6804 c 1.0661,1.5047 1.99,3.3057 2.7308,5.3314 1.0838,-0.3688 2.0872,-0.7921 2.9947,-1.2621 -1.6293,-1.6879 -3.5683,-3.0748 -5.7255,-4.0693 z m -6.3626,15.6804 7.8841,0 c -0.0956,-2.3193 -0.3996,-4.5205 -0.8743,-6.5286 -2.1809,0.5245 -4.5395,0.8555 -7.0098,0.9551 l 0,5.5735 z m 0,-17.154 0,8.4131 c 2.1651,-0.0893 4.2273,-0.3601 6.1255,-0.7819 -1.4319,-3.9688 -3.6113,-6.7875 -6.1255,-7.6312 z m 17.3516,20.3207 -6.3001,0 c -0.1057,2.6206 -0.4717,5.1155 -1.053,7.406 1.471,0.5161 2.8286,1.1275 4.0463,1.8193 1.8438,-2.6609 3.0255,-5.8155 3.3068,-9.2253 z m -10.989,15.6804 c 2.1572,-0.9946 4.0962,-2.3815 5.7255,-4.0694 -0.9074,-0.47 -1.9109,-0.8933 -2.9947,-1.2621 -0.7408,2.0258 -1.6647,3.8268 -2.7308,5.3315 z m -6.3626,-15.6804 0,5.5734 c 2.4703,0.0996 4.8289,0.4306 7.0098,0.9551 0.4747,-2.0081 0.7787,-4.2092 0.8744,-6.5285 l -7.8842,0 z m 0,17.1539 c 2.5142,-0.8436 4.6936,-3.6623 6.1256,-7.6312 -1.8983,-0.4218 -3.9605,-0.6926 -6.1256,-0.7819 l 0,8.4131 z m -20.5183,-17.1539 c 0.2813,3.4098 1.4631,6.5644 3.3069,9.2253 1.2177,-0.6918 2.5752,-1.3032 4.0463,-1.8193 -0.5814,-2.2905 -0.9474,-4.7854 -1.0531,-7.406 l -6.3001,0 z m 10.9891,15.6804 c -1.0661,-1.5047 -1.99,-3.3057 -2.7309,-5.3315 -1.0837,0.3688 -2.0872,0.7921 -2.9946,1.2622 1.6293,1.6878 3.5683,3.0748 5.7255,4.0693 z m 6.3626,-15.6804 -7.8842,0 c 0.0957,2.3193 0.3996,4.5205 0.8744,6.5285 2.1809,-0.5245 4.5394,-0.8555 7.0098,-0.9551 l 0,-5.5734 z m 0,17.1539 0,-8.4131 c -2.1652,0.0893 -4.2274,0.3601 -6.1256,0.7819 1.432,3.9689 3.6113,6.7876 6.1256,7.6312 z"
   id="path4-7" /></svg>