<?xml version="1.0" encoding="UTF-8" standalone="no"?>
<svg
   xmlns:dc="http://purl.org/dc/elements/1.1/"
   xmlns:cc="http://creativecommons.org/ns#"
   xmlns:rdf="http://www.w3.org/1999/02/22-rdf-syntax-ns#"
   xmlns:svg="http://www.w3.org/2000/svg"
   xmlns="http://www.w3.org/2000/svg"
   xmlns:sodipodi="http://sodipodi.sourceforge.net/DTD/sodipodi-0.dtd"
   xmlns:inkscape="http://www.inkscape.org/namespaces/inkscape"
   version="1.1"
   width="76"
   height="76"
   viewBox="0 0 76.00 76.00"
   enable-background="new 0 0 76.00 76.00"
   xml:space="preserve"
   id="svg2"
   inkscape:version="0.48.4 r9939"
   sodipodi:docname="image.add.svg"><metadata
   id="metadata10"><rdf:RDF><cc:Work
       rdf:about=""><dc:format>image/svg+xml</dc:format><dc:type
         rdf:resource="http://purl.org/dc/dcmitype/StillImage" /></cc:Work></rdf:RDF></metadata><defs
   id="defs8" /><sodipodi:namedview
   pagecolor="#ffffff"
   bordercolor="#666666"
   borderopacity="1"
   objecttolerance="10"
   gridtolerance="10"
   guidetolerance="10"
   inkscape:pageopacity="0"
   inkscape:pageshadow="2"
   inkscape:window-width="1920"
   inkscape:window-height="1017"
   id="namedview6"
   showgrid="false"
   inkscape:zoom="0.54893816"
   inkscape:cx="981.22934"
   inkscape:cy="-327.1446"
   inkscape:window-x="1912"
   inkscape:window-y="-8"
   inkscape:window-maximized="1"
   inkscape:current-layer="svg2" />
	<path
   d="m 7.2716376,-0.06779661 44.0831994,0 21.3599,21.35990061 0,54.990382 -65.4430994,0 0,-76.35028261 z m 7.2714554,7.27145541 0,61.8073722 50.900189,0 0,-38.175142 -23.632231,0 0,-23.6322302 -27.267958,0 z m 34.539415,2.2723299 0,14.0884453 14.088443,0 L 49.082508,9.4759887 z m -29.085823,45.9010633 5.453592,5.453591 22.723299,-22.723298 9.089318,9.089319 6.362523,-7.271455 0,27.267957 -47.264459,0 0,-7.271455 3.635727,-4.544659 z M 30.903868,9.0215227 c 0,7.9482463 -6.594664,14.5429113 -14.54291,14.5429113 l 0,-14.5429113 14.54291,0 z"
   id="path4"
   inkscape:connector-curvature="0"
   style="fill:#000000;fill-opacity:1;stroke-width:0.2;stroke-linejoin:round" />
<g
   id="g3000"
   transform="translate(-34.042997,-0.34156849)"><path
     sodipodi:nodetypes="cccccccc"
     style="fill:#ffffff;fill-opacity:1;stroke-width:0.2;stroke-linejoin:round"
     inkscape:connector-curvature="0"
     id="path4-4"
     d="m 44.872427,72.906025 12,0 0,-10.113857 9.31444,0 -15.31444,-15.257516 -15.94065,15.257516 9.94065,0 z" /><path
     sodipodi:nodetypes="cccccccc"
     style="fill:#000000;fill-opacity:1;stroke-width:0.2;stroke-linejoin:round"
     inkscape:connector-curvature="0"
     id="path4-1"
     d="m 46.904697,71.116391 8,0 0,-10 7.25,0 -11.25,-11.25 -11.25,11.25 7.25,0 z" /></g></svg>