<?xml version="1.0" encoding="UTF-8" standalone="no"?>
<svg
   xmlns:dc="http://purl.org/dc/elements/1.1/"
   xmlns:cc="http://creativecommons.org/ns#"
   xmlns:rdf="http://www.w3.org/1999/02/22-rdf-syntax-ns#"
   xmlns:svg="http://www.w3.org/2000/svg"
   xmlns="http://www.w3.org/2000/svg"
   xmlns:sodipodi="http://sodipodi.sourceforge.net/DTD/sodipodi-0.dtd"
   xmlns:inkscape="http://www.inkscape.org/namespaces/inkscape"
   version="1.1"
   width="76"
   height="76"
   viewBox="0 0 76.00 76.00"
   enable-background="new 0 0 76.00 76.00"
   xml:space="preserve"
   id="svg2"
   inkscape:version="0.48.4 r9939"
   sodipodi:docname="image.delete.svg"><metadata
   id="metadata10"><rdf:RDF><cc:Work
       rdf:about=""><dc:format>image/svg+xml</dc:format><dc:type
         rdf:resource="http://purl.org/dc/dcmitype/StillImage" /><dc:title /></cc:Work></rdf:RDF></metadata><defs
   id="defs8" /><sodipodi:namedview
   pagecolor="#ffffff"
   bordercolor="#666666"
   borderopacity="1"
   objecttolerance="10"
   gridtolerance="10"
   guidetolerance="10"
   inkscape:pageopacity="0"
   inkscape:pageshadow="2"
   inkscape:window-width="1920"
   inkscape:window-height="1017"
   id="namedview6"
   showgrid="false"
   inkscape:zoom="8.7830105"
   inkscape:cx="5.3178234"
   inkscape:cy="36.725522"
   inkscape:window-x="1912"
   inkscape:window-y="-8"
   inkscape:window-maximized="1"
   inkscape:current-layer="svg2" />
	<path
   style="fill:#000000;fill-opacity:1;stroke-width:0.2;stroke-linejoin:round"
   d="M 5.375 -0.0625 L 5.375 76.28125 L 70.8125 76.28125 L 70.8125 21.28125 L 49.46875 -0.0625 L 5.375 -0.0625 z M 12.65625 7.21875 L 39.90625 7.21875 L 39.90625 30.84375 L 63.53125 30.84375 L 63.53125 69 L 31.1875 69 L 25.0625 75.28125 L 19.3125 69.03125 L 13.6875 75.28125 L 7.3125 68.875 L 12.65625 64.09375 L 12.65625 62.4375 L 7.34375 57.5 L 12.65625 52.28125 L 12.65625 7.21875 z M 14.46875 9.03125 L 14.46875 23.5625 C 22.416996 23.5625 29 16.979496 29 9.03125 L 14.46875 9.03125 z M 47.1875 9.46875 L 61.28125 23.5625 L 47.1875 23.5625 L 47.1875 9.46875 z M 46.28125 38.09375 L 29.03125 55.375 L 31.3125 57.65625 L 25.0625 63.28125 L 29.4375 67.1875 L 61.71875 67.1875 L 61.71875 39.9375 L 55.375 47.1875 L 46.28125 38.09375 z M 18.09375 55.375 L 17.75 55.8125 L 19.3125 57.53125 L 19.75 57.03125 L 18.09375 55.375 z "
   id="path4" />
<path
   d="m 10.365334,57.681761 3.3588,-3.3588 5.5979,5.5979 5.5979,-5.5979 3.3588,3.3588 -5.5979,5.5979 5.5979,5.5979 -3.3588,3.3588 -5.5979,-5.598 -5.5979,5.598 -3.3588,-3.3588 5.598,-5.5979 z"
   id="path4-17"
   inkscape:connector-curvature="0"
   style="fill:#000000;fill-opacity:1;stroke-width:0.2;stroke-linejoin:round"
   sodipodi:nodetypes="ccccccccccccc" /></svg>