<?xml version="1.0" encoding="UTF-8" standalone="no"?>
<svg
   xmlns:dc="http://purl.org/dc/elements/1.1/"
   xmlns:cc="http://creativecommons.org/ns#"
   xmlns:rdf="http://www.w3.org/1999/02/22-rdf-syntax-ns#"
   xmlns:svg="http://www.w3.org/2000/svg"
   xmlns="http://www.w3.org/2000/svg"
   xmlns:sodipodi="http://sodipodi.sourceforge.net/DTD/sodipodi-0.dtd"
   xmlns:inkscape="http://www.inkscape.org/namespaces/inkscape"
   version="1.1"
   width="76"
   height="76"
   viewBox="0 0 76.00 76.00"
   enable-background="new 0 0 76.00 76.00"
   xml:space="preserve"
   id="svg2"
   inkscape:version="0.48.4 r9939"
   sodipodi:docname="page.update.svg"><metadata
   id="metadata10"><rdf:RDF><cc:Work
       rdf:about=""><dc:format>image/svg+xml</dc:format><dc:type
         rdf:resource="http://purl.org/dc/dcmitype/StillImage" /><dc:title /></cc:Work></rdf:RDF></metadata><defs
   id="defs8" /><sodipodi:namedview
   pagecolor="#ffffff"
   bordercolor="#666666"
   borderopacity="1"
   objecttolerance="10"
   gridtolerance="10"
   guidetolerance="10"
   inkscape:pageopacity="0"
   inkscape:pageshadow="2"
   inkscape:window-width="1920"
   inkscape:window-height="1017"
   id="namedview6"
   showgrid="false"
   inkscape:zoom="0.54893816"
   inkscape:cx="1216.6424"
   inkscape:cy="-273.53084"
   inkscape:window-x="1912"
   inkscape:window-y="-8"
   inkscape:window-maximized="1"
   inkscape:current-layer="svg2" />
	<path
   d="m 5.9225182,0.57627119 41.9682198,0 23.014831,23.01483081 0,52.798729 -64.9830508,0 z m 7.2203388,7.22033891 0,61.3728809 50.542373,0 0,-37.906779 -23.466102,0 0,-23.4661019 z m 34.29661,2.2563559 0,13.989406 13.989407,0 z"
   id="path4"
   inkscape:connector-curvature="0"
   style="fill:#000000;fill-opacity:1;stroke-width:0.2;stroke-linejoin:round"
   sodipodi:nodetypes="ccccccccccccccccc" />
<path
   style="fill:#000000;fill-opacity:1;stroke-width:0.2;stroke-linejoin:round"
   inkscape:connector-curvature="0"
   d="m 15.112278,46.941608 0,-5.545791 7.678669,-6.825483 7.678669,7.252161 0,5.119113 -5.119112,-4.513692 0,10.485905 c 0,4.947622 4.010825,8.958447 8.958447,8.958447 4.947622,0 8.958447,-4.010825 8.958447,-8.958447 0,-4.804629 -3.782342,-8.725784 -8.531854,-8.948465 l 0,-5.122781 c 7.577481,0.225582 13.650967,6.439161 13.650967,14.071246 0,7.774823 -6.302737,14.07756 -14.07756,14.07756 -7.774823,0 -14.07756,-6.302737 -14.07756,-14.07756 l 0,-10.55817 -5.119113,4.585957 z"
   id="path4-1" /></svg>