<?xml version="1.0" encoding="UTF-8" standalone="no"?>
<svg
   xmlns:dc="http://purl.org/dc/elements/1.1/"
   xmlns:cc="http://creativecommons.org/ns#"
   xmlns:rdf="http://www.w3.org/1999/02/22-rdf-syntax-ns#"
   xmlns:svg="http://www.w3.org/2000/svg"
   xmlns="http://www.w3.org/2000/svg"
   xmlns:sodipodi="http://sodipodi.sourceforge.net/DTD/sodipodi-0.dtd"
   xmlns:inkscape="http://www.inkscape.org/namespaces/inkscape"
   version="1.1"
   width="76"
   height="76"
   viewBox="0 0 76.00 76.00"
   enable-background="new 0 0 76.00 76.00"
   xml:space="preserve"
   id="svg2"
   inkscape:version="0.48.4 r9939"
   sodipodi:docname="page.delete.svg"><metadata
   id="metadata10"><rdf:RDF><cc:Work
       rdf:about=""><dc:format>image/svg+xml</dc:format><dc:type
         rdf:resource="http://purl.org/dc/dcmitype/StillImage" /></cc:Work></rdf:RDF></metadata><defs
   id="defs8" /><sodipodi:namedview
   pagecolor="#ffffff"
   bordercolor="#666666"
   borderopacity="1"
   objecttolerance="10"
   gridtolerance="10"
   guidetolerance="10"
   inkscape:pageopacity="0"
   inkscape:pageshadow="2"
   inkscape:window-width="1920"
   inkscape:window-height="1017"
   id="namedview6"
   showgrid="false"
   inkscape:zoom="4.3915053"
   inkscape:cx="22.432124"
   inkscape:cy="80.457707"
   inkscape:window-x="-8"
   inkscape:window-y="-8"
   inkscape:window-maximized="1"
   inkscape:current-layer="svg2" />
	<path
   style="fill:#000000;fill-opacity:1;stroke-width:0.2;stroke-linejoin:round"
   d="M 5.9375 0.5625 L 5.9375 76.375 L 70.90625 76.375 L 70.90625 23.59375 L 47.90625 0.5625 L 5.9375 0.5625 z M 13.15625 7.78125 L 40.21875 7.78125 L 40.21875 31.25 L 63.6875 31.25 L 63.6875 69.15625 L 30.25 69.15625 L 30.84375 69.6875 L 24.59375 76.09375 L 18.84375 69.84375 L 13.21875 76.09375 L 6.84375 69.6875 L 13.09375 64.09375 L 6.875 58.3125 L 13.15625 52.15625 L 13.15625 7.78125 z M 47.4375 10.0625 L 61.4375 24.03125 L 47.4375 24.03125 L 47.4375 10.0625 z "
   id="path4" />
<path
   d="m 9.8822834,58.486845 3.3587996,-3.3588 5.5979,5.5979 5.597901,-5.5979 3.3588,3.3588 -5.597901,5.5979 5.597901,5.5979 -3.3588,3.3588 -5.597901,-5.598 -5.5979,5.598 -3.3587996,-3.3588 5.5979996,-5.5979 z"
   id="path4-17"
   inkscape:connector-curvature="0"
   style="fill:#000000;fill-opacity:1;stroke-width:0.2;stroke-linejoin:round"
   sodipodi:nodetypes="ccccccccccccc" /></svg>