<?xml version="1.0" encoding="UTF-8" standalone="no"?>
<svg
   xmlns:dc="http://purl.org/dc/elements/1.1/"
   xmlns:cc="http://creativecommons.org/ns#"
   xmlns:rdf="http://www.w3.org/1999/02/22-rdf-syntax-ns#"
   xmlns:svg="http://www.w3.org/2000/svg"
   xmlns="http://www.w3.org/2000/svg"
   xmlns:sodipodi="http://sodipodi.sourceforge.net/DTD/sodipodi-0.dtd"
   xmlns:inkscape="http://www.inkscape.org/namespaces/inkscape"
   version="1.1"
   width="76"
   height="76"
   viewBox="0 0 76.00 76.00"
   enable-background="new 0 0 76.00 76.00"
   xml:space="preserve"
   id="svg2"
   inkscape:version="0.48.4 r9939"
   sodipodi:docname="project.add.svg"><metadata
   id="metadata10"><rdf:RDF><cc:Work
       rdf:about=""><dc:format>image/svg+xml</dc:format><dc:type
         rdf:resource="http://purl.org/dc/dcmitype/StillImage" /></cc:Work></rdf:RDF></metadata><defs
   id="defs8" /><sodipodi:namedview
   pagecolor="#ffffff"
   bordercolor="#666666"
   borderopacity="1"
   objecttolerance="10"
   gridtolerance="10"
   guidetolerance="10"
   inkscape:pageopacity="0"
   inkscape:pageshadow="2"
   inkscape:window-width="1920"
   inkscape:window-height="1017"
   id="namedview6"
   showgrid="false"
   inkscape:zoom="4.3915053"
   inkscape:cx="-21.600323"
   inkscape:cy="35.157177"
   inkscape:window-x="-8"
   inkscape:window-y="-8"
   inkscape:window-maximized="1"
   inkscape:current-layer="svg2" />
	<path
   style="fill:#000000;fill-opacity:1;stroke-width:0.2;stroke-linejoin:round"
   d="M 32.1875 12.96875 C 32.1875 12.96875 29.596952 14.677894 27.875 19.84375 L 0.3125 19.84375 L 0.3125 55.53125 L 14.09375 26.75 L 60.59375 26.75 L 60.59375 19.84375 L 53.71875 19.84375 L 53.71875 15.125 C 53.71875 14.173966 52.513534 12.96875 51.5625 12.96875 L 32.1875 12.96875 z M 15.8125 30.1875 L 0.3125 61.75 L 47.40625 61.75 L 47.40625 60.46875 L 36.71875 60.46875 L 36.71875 48.84375 L 47.40625 48.84375 L 47.40625 38.15625 L 59.03125 38.15625 L 59.03125 48.84375 L 66.9375 48.84375 L 76.09375 30.1875 L 15.8125 30.1875 z M 59.03125 60.46875 L 59.03125 61.75 L 60.59375 61.75 L 61.21875 60.46875 L 59.03125 60.46875 z "
   id="path4" />
<path
   d="m 50.174069,41.115416 6.221375,0 0,10.369001 10.36887,0 0,6.221375 -10.36887,0 0,10.36887 -6.221375,0 0,-10.36887 -10.369001,0 0,-6.221375 10.369001,0 z"
   id="path4-4"
   inkscape:connector-curvature="0"
   style="fill:#000000;fill-opacity:1;stroke-width:0.2;stroke-linejoin:round"
   sodipodi:nodetypes="ccccccccccccc" /></svg>