<?xml version="1.0" encoding="UTF-8" standalone="no"?>
<svg
   xmlns:dc="http://purl.org/dc/elements/1.1/"
   xmlns:cc="http://creativecommons.org/ns#"
   xmlns:rdf="http://www.w3.org/1999/02/22-rdf-syntax-ns#"
   xmlns:svg="http://www.w3.org/2000/svg"
   xmlns="http://www.w3.org/2000/svg"
   xmlns:sodipodi="http://sodipodi.sourceforge.net/DTD/sodipodi-0.dtd"
   xmlns:inkscape="http://www.inkscape.org/namespaces/inkscape"
   version="1.1"
   width="76"
   height="76"
   viewBox="0 0 76.00 76.00"
   enable-background="new 0 0 76.00 76.00"
   xml:space="preserve"
   id="svg2"
   inkscape:version="0.48.4 r9939"
   sodipodi:docname="project.fork.svg"><metadata
   id="metadata10"><rdf:RDF><cc:Work
       rdf:about=""><dc:format>image/svg+xml</dc:format><dc:type
         rdf:resource="http://purl.org/dc/dcmitype/StillImage" /></cc:Work></rdf:RDF></metadata><defs
   id="defs8" /><sodipodi:namedview
   pagecolor="#ffffff"
   bordercolor="#666666"
   borderopacity="1"
   objecttolerance="10"
   gridtolerance="10"
   guidetolerance="10"
   inkscape:pageopacity="0"
   inkscape:pageshadow="2"
   inkscape:window-width="1920"
   inkscape:window-height="1017"
   id="namedview6"
   showgrid="false"
   inkscape:zoom="3.1052632"
   inkscape:cx="38"
   inkscape:cy="38"
   inkscape:window-x="-8"
   inkscape:window-y="-8"
   inkscape:window-maximized="1"
   inkscape:current-layer="svg2" />
	<path
   d="m 60.063206,40.767871 c 0,5.759092 -4.668785,10.427878 -10.427877,10.427878 l -20.854437,0 c 3.165377,2.378025 5.212786,6.163799 5.212786,10.427712 0,7.198946 -5.835817,13.034764 -13.034764,13.034764 -7.198782,0 -13.0345997,-5.835818 -13.0345997,-13.034764 0,-5.344999 3.2172407,-9.938705 7.8208257,-11.950057 l 0,-23.024675 C 11.141555,24.637377 7.9243143,20.043672 7.9243143,14.698672 c 0,-7.1989458 5.8358177,-13.0347635 13.0345997,-13.0347635 7.198947,0 13.034764,5.8358177 13.034764,13.0347635 0,5.345 -3.21724,9.938705 -7.820826,11.950057 l 0,14.119142 18.248703,0 c 2.879381,0 5.213774,-2.334228 5.213774,-5.213774 l 0,-3.691594 c -4.603584,-2.011352 -7.820826,-6.605058 -7.820826,-11.950057 0,-7.198946 5.835819,-13.0347636 13.034765,-13.0347636 7.198781,0 13.034764,5.8358176 13.034764,13.0347636 0,5.344999 -3.21724,9.938705 -7.820826,11.950057 l 0,8.905368 z M 54.849268,14.698507 c -2.879546,0 -5.213939,2.334393 -5.213939,5.213939 0,2.879546 2.334393,5.213774 5.213939,5.213774 2.879546,0 5.213938,-2.334228 5.213938,-5.213774 0,-2.879546 -2.334392,-5.213939 -5.213938,-5.213939 z M 20.958914,9.484734 c -2.879546,0 -5.213774,2.334393 -5.213774,5.213938 0,2.879546 2.334228,5.213774 5.213774,5.213774 2.879545,0 5.213938,-2.334228 5.213938,-5.213774 0,-2.879545 -2.334393,-5.213938 -5.213938,-5.213938 z m 0,46.924953 c -2.879546,0 -5.213774,2.334228 -5.213774,5.213774 0,2.879546 2.334228,5.213939 5.213774,5.213939 2.879545,0 5.213938,-2.334393 5.213938,-5.213939 0,-2.879546 -2.334393,-5.213774 -5.213938,-5.213774 z"
   id="path4"
   inkscape:connector-curvature="0"
   style="fill:#000000;fill-opacity:1;stroke-width:0.2;stroke-linejoin:round" />
</svg>