<?xml version="1.0" encoding="UTF-8" standalone="no"?>
<svg
   xmlns:dc="http://purl.org/dc/elements/1.1/"
   xmlns:cc="http://creativecommons.org/ns#"
   xmlns:rdf="http://www.w3.org/1999/02/22-rdf-syntax-ns#"
   xmlns:svg="http://www.w3.org/2000/svg"
   xmlns="http://www.w3.org/2000/svg"
   xmlns:sodipodi="http://sodipodi.sourceforge.net/DTD/sodipodi-0.dtd"
   xmlns:inkscape="http://www.inkscape.org/namespaces/inkscape"
   version="1.1"
   width="76"
   height="76"
   viewBox="0 0 76.00 76.00"
   enable-background="new 0 0 76.00 76.00"
   xml:space="preserve"
   id="svg2"
   inkscape:version="0.48.4 r9939"
   sodipodi:docname="user.tie.svg"><metadata
   id="metadata10"><rdf:RDF><cc:Work
       rdf:about=""><dc:format>image/svg+xml</dc:format><dc:type
         rdf:resource="http://purl.org/dc/dcmitype/StillImage" /></cc:Work></rdf:RDF></metadata><defs
   id="defs8" /><sodipodi:namedview
   pagecolor="#ffffff"
   bordercolor="#666666"
   borderopacity="1"
   objecttolerance="10"
   gridtolerance="10"
   guidetolerance="10"
   inkscape:pageopacity="0"
   inkscape:pageshadow="2"
   inkscape:window-width="1920"
   inkscape:window-height="1017"
   id="namedview6"
   showgrid="false"
   inkscape:zoom="3.1052632"
   inkscape:cx="38"
   inkscape:cy="38"
   inkscape:window-x="1912"
   inkscape:window-y="-8"
   inkscape:window-maximized="1"
   inkscape:current-layer="svg2" />
	<path
   d="m 38.483051,0.3220339 c 11.130363,0 15.90049,6.3602365 14.295117,19.7099641 1.434251,0.82247 2.400328,2.368796 2.400328,4.140671 0,2.168149 -1.446504,3.998472 -3.427261,4.57852 -0.827491,2.949244 -2.112513,5.560059 -3.72793,7.648672 l 0,10.033335 c 5.300163,1.060072 9.540254,1.590109 15.900491,4.770127 6.360035,3.180218 8.480182,6.095318 12.720272,10.33541 l 0,15.105335 -76.3220341,0 0,-15.105335 c 4.2400906,-4.240092 6.3602365,-7.155192 12.7202721,-10.33541 6.360236,-3.180018 10.600327,-3.710055 15.90049,-4.770127 l 0,-10.033335 c -1.615416,-2.088613 -2.900438,-4.699428 -3.727929,-7.648672 -1.980758,-0.580048 -3.427261,-2.410371 -3.427261,-4.57852 0,-1.771875 0.966077,-3.318201 2.400328,-4.140671 C 22.582561,6.6822704 27.352688,0.3220339 38.483051,0.3220339 z m -5.565082,50.8812891 3.180019,6.360236 4.770126,0 3.180019,-6.360236 -11.130164,0 z m 2.385064,9.540255 3.180018,12.720472 3.180017,-12.720472 -6.360035,0 z"
   id="path4"
   inkscape:connector-curvature="0"
   style="fill:#000000;fill-opacity:1;stroke-width:0.2;stroke-linejoin:round" />
</svg>