<?xml version="1.0" encoding="UTF-8" standalone="no"?>
<svg
   xmlns:dc="http://purl.org/dc/elements/1.1/"
   xmlns:cc="http://creativecommons.org/ns#"
   xmlns:rdf="http://www.w3.org/1999/02/22-rdf-syntax-ns#"
   xmlns:svg="http://www.w3.org/2000/svg"
   xmlns="http://www.w3.org/2000/svg"
   xmlns:sodipodi="http://sodipodi.sourceforge.net/DTD/sodipodi-0.dtd"
   xmlns:inkscape="http://www.inkscape.org/namespaces/inkscape"
   version="1.1"
   width="76"
   height="76"
   viewBox="0 0 76.00 76.00"
   enable-background="new 0 0 76.00 76.00"
   xml:space="preserve"
   id="svg2"
   inkscape:version="0.48.4 r9939"
   sodipodi:docname="appbar.page.edit.svg"><metadata
   id="metadata10"><rdf:RDF><cc:Work
       rdf:about=""><dc:format>image/svg+xml</dc:format><dc:type
         rdf:resource="http://purl.org/dc/dcmitype/StillImage" /></cc:Work></rdf:RDF></metadata><defs
   id="defs8" /><sodipodi:namedview
   pagecolor="#ffffff"
   bordercolor="#666666"
   borderopacity="1"
   objecttolerance="10"
   gridtolerance="10"
   guidetolerance="10"
   inkscape:pageopacity="0"
   inkscape:pageshadow="2"
   inkscape:window-width="1920"
   inkscape:window-height="1017"
   id="namedview6"
   showgrid="false"
   inkscape:zoom="3.1052632"
   inkscape:cx="38"
   inkscape:cy="38"
   inkscape:window-x="-8"
   inkscape:window-y="-8"
   inkscape:window-maximized="1"
   inkscape:current-layer="svg2" />
	<path
   d="m 55.076278,24.315325 12.453428,0 -12.453428,-12.453429 0,12.453429 z m 14.462047,4.820683 -20.889624,0 0,-19.2827304 -24.103411,0 0,16.4706644 -6.427577,-6.427575 0,-16.4706659 37.360288,0 20.4879,20.4879009 0,47.001653 -57.848188,0 0,-27.718923 6.427577,6.427576 0,14.863771 44.993035,0 0,-35.351671 z M 17.381273,21.904984 41.551532,46.075404 32.646767,54.980168 8.4763477,30.809908 17.381273,21.904984 z M 6.5681609,28.901723 1.4796093,24.81989 C -0.15219172,23.187929 0.48397772,19.720411 2.1157787,18.088611 l 2.5441955,-2.544195 c 1.6318009,-1.631802 4.7287674,-2.267971 6.3605698,-0.63601 l 4.452381,5.088551 -8.9047641,8.904766 z M 45.389117,60.06872 34.554953,56.888516 l 8.904765,-8.904926 2.97404,11.040488 -1.044641,1.044642 z"
   id="path4"
   inkscape:connector-curvature="0"
   style="fill:#000000;fill-opacity:1;stroke-width:0.2;stroke-linejoin:round" />
</svg>