<?xml version="1.0" encoding="UTF-8" standalone="no"?>
<svg
   xmlns:dc="http://purl.org/dc/elements/1.1/"
   xmlns:cc="http://creativecommons.org/ns#"
   xmlns:rdf="http://www.w3.org/1999/02/22-rdf-syntax-ns#"
   xmlns:svg="http://www.w3.org/2000/svg"
   xmlns="http://www.w3.org/2000/svg"
   xmlns:sodipodi="http://sodipodi.sourceforge.net/DTD/sodipodi-0.dtd"
   xmlns:inkscape="http://www.inkscape.org/namespaces/inkscape"
   version="1.1"
   width="76"
   height="76"
   viewBox="0 0 76.00 76.00"
   enable-background="new 0 0 76.00 76.00"
   xml:space="preserve"
   id="svg2"
   inkscape:version="0.48.4 r9939"
   sodipodi:docname="appbar.notification.add.svg"><metadata
   id="metadata10"><rdf:RDF><cc:Work
       rdf:about=""><dc:format>image/svg+xml</dc:format><dc:type
         rdf:resource="http://purl.org/dc/dcmitype/StillImage" /><dc:title /></cc:Work></rdf:RDF></metadata><defs
   id="defs8" /><sodipodi:namedview
   pagecolor="#ffffff"
   bordercolor="#666666"
   borderopacity="1"
   objecttolerance="10"
   gridtolerance="10"
   guidetolerance="10"
   inkscape:pageopacity="0"
   inkscape:pageshadow="2"
   inkscape:window-width="504"
   inkscape:window-height="423"
   id="namedview6"
   showgrid="false"
   inkscape:zoom="2.1957526"
   inkscape:cx="31.578842"
   inkscape:cy="52.359708"
   inkscape:window-x="874"
   inkscape:window-y="127"
   inkscape:window-maximized="0"
   inkscape:current-layer="svg2" />
	<path
   d="m 5.4164886,13.655445 65.8110034,0 c 3.02896,0 5.484265,2.455305 5.484265,5.484265 l 0,40.217948 c 0,3.028775 -2.455488,5.484264 -5.484265,5.484264 l -65.8110034,0 c -3.0289596,0 -5.48426439,-2.455489 -5.48426439,-5.484264 l 0,-40.217948 c 0,-3.028777 2.45530479,-5.484265 5.48426439,-5.484265 z m 3.6561782,12.796436 0,3.656177 53.0145672,0 0,-3.656177 -53.0145672,0 z m 0,10.968529 0,3.65618 40.2179462,0 0,-3.65618 -40.2179462,0 z m 0,10.968532 0,3.656178 53.0145672,0 0,-3.656178 -53.0145672,0 z"
   id="path4"
   inkscape:connector-curvature="0"
   style="fill:#000000;fill-opacity:1;stroke-width:0.2;stroke-linejoin:round" />
<g
   id="g3884"
   transform="matrix(2.9425677,0,0,2.9425677,-191.23224,-59.98092)"><path
     sodipodi:nodetypes="cccccccccccccccccccccccccc"
     style="fill:#ffffff;fill-opacity:1;stroke-width:0.2;stroke-linejoin:round"
     inkscape:connector-curvature="0"
     id="path4-8-2"
     d="m 69.514182,31.573481 5.026309,0.0071 -0.0071,-3.06126 2.99053,0 0,-5.039969 -3.033227,0.02135 0.0071,-3.039911 -4.996205,0.04025 -0.02013,3.032203 -3.010064,0.02013 0.01667,5.001528 3.054574,-0.0427 z m 1.359758,-0.989583 0,-3.374364 -3.332097,0 0,-2.249578 3.332097,0 0,-3.374363 2.2214,0 0,3.374363 3.332096,0 0,2.249578 -3.332096,0 0,3.374364 z" /><g
     transform="translate(9.2798462,-1.9384157)"
     id="g3849"><path
       d="m 60.734754,32.952694 4,0 0,-3 3,0 0,-4 -3,0 0,-3 -4,0 0,3 -3,0 0,4 3,0 z m 1,-1 0,-3 -3,0 0,-2 3,0 0,-3 2,0 0,3 3,0 0,2 -3,0 0,3 z"
       id="path4-8"
       inkscape:connector-curvature="0"
       style="fill:#000000;fill-opacity:1;stroke-width:0.2;stroke-linejoin:round"
       sodipodi:nodetypes="cccccccccccccccccccccccccc" /><path
       style="fill:#ffffff;fill-opacity:0;stroke:none"
       d="m 61.747066,30.434092 0,-1.508594 -1.494362,0 -1.494363,0 0,-0.98201 0,-0.982009 1.494363,0 1.494362,0 0,-1.494363 0,-1.494362 0.982009,0 0.98201,0 0,1.494362 0,1.494363 1.508594,0 1.508595,0 0,0.981757 0,0.981758 -1.501479,0.0074 -1.501478,0.0074 -0.0074,1.501478 -0.0074,1.501478 -0.981758,0 -0.981758,0 0,-1.508594 z"
       id="path3077"
       inkscape:connector-curvature="0" /><path
       style="fill:#ffffff;fill-opacity:1;stroke:none"
       d="m 61.752759,30.434092 0,-1.508594 -1.508595,0 -1.508594,0 0,-0.98201 0,-0.982009 1.508594,0 1.508595,0 0,-1.494363 0,-1.494362 0.982009,0 0.98201,0 0,1.494362 0,1.494363 1.508594,0 1.508594,0 0,0.982009 0,0.98201 -1.508594,0 -1.508594,0 0,1.508594 0,1.508594 -0.98201,0 -0.982009,0 0,-1.508594 z"
       id="path3847"
       inkscape:connector-curvature="0" /></g></g></svg>